PathFileType	4	(X/Y/Z)	C:\Users\Basilio\Documents\Thesis Gigler\squatting_fais\c3dfiles\058\SLS_back_pre1\markers_experimental.trc
DataRate	CameraRate	NumFrames	NumMarkers	Units	OrigDataRate	OrigDataStartFrame	OrigNumFrames
200.000000	200.000000	4	60	mm	200.000000	1063	1215
Frame#	Time	FHD			LBHD			RBHD			C7			T10			CLAV			LSHO			LUUPA			LMUPA			LDUPA			LLEP			LMEP			LUL			LRFIN			RSHO			RUPA1			RMUPA			RDUPA			RLEP			RMEP			RRAD			RUL			RUFIN			LASI			RASI			USACR			LSACR			RSACR			LTHI1			LTHI2			LTHI3			LTHI4			LLFC			LMFC			LTIB1			LTIB2			LTIB3			LTIB4			LLMAL			LMMAL			LHEE			LMT1			LMT5			RTHI			RTHI2			RTHI3			RTHI4			RLFC			RMFC			RTIB1			RTIB2			RTIB3			RTIB4			RLMAL			RMMAL			RHEE			RMT1			RMT2			RMT5			LMT2			
		X1	Y1	Z1	X2	Y2	Z2	X3	Y3	Z3	X4	Y4	Z4	X5	Y5	Z5	X6	Y6	Z6	X7	Y7	Z7	X8	Y8	Z8	X9	Y9	Z9	X10	Y10	Z10	X11	Y11	Z11	X12	Y12	Z12	X13	Y13	Z13	X14	Y14	Z14	X15	Y15	Z15	X16	Y16	Z16	X17	Y17	Z17	X18	Y18	Z18	X19	Y19	Z19	X20	Y20	Z20	X21	Y21	Z21	X22	Y22	Z22	X23	Y23	Z23	X24	Y24	Z24	X25	Y25	Z25	X26	Y26	Z26	X27	Y27	Z27	X28	Y28	Z28	X29	Y29	Z29	X30	Y30	Z30	X31	Y31	Z31	X32	Y32	Z32	X33	Y33	Z33	X34	Y34	Z34	X35	Y35	Z35	X36	Y36	Z36	X37	Y37	Z37	X38	Y38	Z38	X39	Y39	Z39	X40	Y40	Z40	X41	Y41	Z41	X42	Y42	Z42	X43	Y43	Z43	X44	Y44	Z44	X45	Y45	Z45	X46	Y46	Z46	X47	Y47	Z47	X48	Y48	Z48	X49	Y49	Z49	X50	Y50	Z50	X51	Y51	Z51	X52	Y52	Z52	X53	Y53	Z53	X54	Y54	Z54	X55	Y55	Z55	X56	Y56	Z56	X57	Y57	Z57	X58	Y58	Z58	X59	Y59	Z59	X60	Y60	Z60	

1064	5.315	-238.2560577392579	1805.56201171875	-625.5220947265626	-395.6808166503907	1759.988891601563	-700.2350463867189	-224.2420654296876	1810.135498046875	-767.6043701171876	-411.342987060547	1595.538208007813	-710.1440429687501	-418.040985107422	1290.378173828125	-699.2315673828126	-255.5508422851563	1549.58203125	-695.5791625976564	-272.1143493652344	1601.66064453125	-847.9147949218752	-114.6104736328125	1536.673095703125	-949.0604248046877	-92.1284866333008	1574.632202148438	-923.0982666015627	-45.30281066894532	1539.566528320313	-938.0874633789065	27.91909217834473	1545.4716796875	-917.4334716796877	32.83335113525391	1489.662475585938	-885.0500488281252	293.8025512695313	1587.177734375	-876.3228149414065	388.8387451171876	1584.803955078125	-794.202087402344	-284.6606750488282	1603.566772460938	-544.5514526367189	-121.8889312744141	1513.830932617188	-450.7771911621095	-100.294303894043	1552.491577148438	-475.9676208496095	-52.86252593994142	1521.64599609375	-458.3704528808595	13.04859256744385	1512.755493164063	-472.9733276367189	14.83156394958496	1455.093505859375	-525.0422973632814	275.7464294433594	1537.3984375	-576.8141479492189	280.8750915527344	1549.131958007813	-496.8682861328126	369.8446655273438	1564.01806640625	-568.5133056640626	-250.4388275146485	1093.500122070313	-850.9041748046877	-233.1782226562501	1071.665649414063	-609.4435424804689	-432.0192871093751	1171.680786132813	-698.1770629882814	-441.5562744140626	1143.209350585938	-728.2573852539064	-433.2591857910157	1137.773315429688	-671.3149414062501	-285.5466918945313	824.0798950195315	-953.7229003906252	-247.8687286376954	747.7731933593751	-962.4826660156252	-201.8015899658204	749.3417358398439	-944.5161743164065	-271.1715698242188	692.8097534179689	-963.4257812500002	-282.9276733398438	608.6527709960939	-961.1848754882815	-247.4195098876954	574.2944335937501	-838.7610473632815	-351.9549255371094	494.8485412597657	-939.022155761719	-421.5501708984376	539.3458251953126	-962.8850708007815	-407.6088867187501	496.952850341797	-958.1397094726565	-475.1165161132814	454.3529357910157	-929.3460083007815	-674.1885986328126	440.4691772460939	-897.1655273437502	-635.9497070312501	384.0018920898439	-832.3762207031252	-672.1416625976564	477.3736877441407	-820.5714111328127	-732.1813354492189	264.8593750000001	-864.630798339844	-773.2816162109377	339.3160705566407	-931.584655761719	-343.5496826171876	862.6821899414065	-555.8621215820314	-307.9147644042969	807.293640136719	-559.6861572265626	-274.9850463867188	806.7539062500002	-561.1426391601564	-336.6391906738282	731.3862915039064	-582.2332763671876	-332.2896728515626	551.2410888671876	-615.1773681640626	-299.6685791015626	550.4237670898439	-748.4505004882814	-291.1900329589844	353.6919250488282	-719.9570312500001	-331.6809387207032	271.3822937011719	-661.7551879882814	-296.8569030761719	267.0159912109376	-694.9364624023439	-309.4015502929688	226.7312469482422	-733.9367065429689	-373.5598144531251	118.9656677246094	-702.0117187500001	-341.7758789062501	144.620834350586	-788.6411132812502	-439.6067810058595	102.9522094726563	-765.3474121093751	-229.2520141601563	59.70639801025392	-777.6408691406252	-223.6028442382813	58.9349822998047	-725.4088134765626	-274.3009643554688	28.35910797119141	-673.7160644531251	-746.4104003906251	276.1866760253907	-907.9683227539065	
1065	5.32	-237.9608917236329	1805.617919921875	-625.6503906250001	-395.533660888672	1760.091552734375	-700.1469116210939	-224.1733398437501	1810.123168945313	-767.5802001953126	-411.2108764648439	1595.61279296875	-710.0682983398439	-417.983612060547	1290.37060546875	-699.1723632812501	-255.457504272461	1549.570068359375	-695.5145874023439	-272.0541076660157	1601.67529296875	-847.846130371094	-114.6020050048828	1536.702392578125	-948.9492187500002	-92.08801269531251	1574.561645507813	-923.0053710937502	-45.26216125488282	1539.617309570313	-937.944274902344	27.97753143310548	1545.464477539063	-917.3096923828127	32.92440414428712	1489.67431640625	-885.0393066406252	293.8793945312501	1587.111450195313	-876.204040527344	389.0294189453126	1584.672119140625	-794.1116333007815	-284.6205444335938	1603.55029296875	-544.6186523437501	-121.7667388916016	1513.923706054688	-450.7015686035157	-100.2147598266602	1552.49560546875	-475.8872375488282	-52.81766510009767	1521.668334960938	-458.2155761718751	13.10763835906983	1512.741943359375	-472.9713745117189	14.92303276062012	1455.146728515625	-524.9235229492189	276.1791687011719	1537.42724609375	-576.7214965820314	281.0109252929688	1549.156127929688	-496.8436584472657	370.0225524902344	1564.103881835938	-568.5092773437501	-250.304672241211	1093.556884765625	-850.8233642578127	-233.0879974365235	1071.682373046875	-609.3673095703126	-431.953338623047	1171.722900390625	-698.1201171875001	-441.4893188476564	1143.246215820313	-728.1832275390626	-433.2164001464845	1137.803100585938	-671.2789306640626	-285.5086975097657	824.1029052734377	-953.6809082031252	-247.7792205810547	747.8005981445314	-962.475036621094	-201.7650451660157	749.3568725585939	-944.492370605469	-271.0893859863282	692.8314208984376	-963.398376464844	-282.8827514648438	608.6589355468751	-961.192077636719	-247.3663024902344	574.2975463867189	-838.7058715820315	-351.8041381835938	494.9297180175782	-939.0628662109377	-421.5025024414064	539.3313598632814	-962.8817138671877	-407.7110595703126	496.9868469238282	-958.0999145507815	-475.1236572265626	454.3261718750001	-929.2806396484377	-674.1279907226564	440.3994140625001	-897.157409667969	-635.9243164062501	383.8999328613282	-832.3676757812502	-672.1479492187501	477.326385498047	-820.577087402344	-732.0723876953126	264.7443542480469	-864.572204589844	-773.8233642578127	339.6344604492188	-931.483337402344	-343.5654296875001	862.7627563476565	-555.7990112304689	-307.9476623535157	807.557556152344	-559.6084594726564	-275.0486755371094	806.7915039062502	-561.0797729492189	-336.7911987304688	731.4296264648439	-582.1887207031251	-332.4419555664063	551.3725585937501	-615.1338500976564	-299.6665344238282	550.4545898437501	-748.3203735351564	-291.2656860351563	353.7542724609376	-719.8517456054689	-331.7528991699219	271.4444885253907	-661.5596313476564	-297.0570678710938	267.0564270019532	-694.6784057617189	-309.3759765625001	226.7692565917969	-733.7986450195314	-373.6781921386719	118.9786911010742	-701.9838256835939	-341.7667846679688	144.5345153808594	-788.5113525390627	-439.6003417968751	102.9666442871094	-765.3148193359376	-229.2418823242188	59.82835388183595	-777.578063964844	-223.5954132080079	58.91488647460939	-725.3917846679689	-274.2671203613282	28.30989265441895	-673.7199096679689	-746.2266235351564	276.1389465332032	-908.0112915039065	
1066	5.325	-237.8738555908204	1805.68603515625	-625.5722045898439	-395.3247070312501	1760.22802734375	-700.1049194335939	-224.0812225341797	1810.114868164063	-767.6300659179689	-411.069793701172	1595.74609375	-710.0026855468751	-417.8928222656251	1290.396362304688	-699.1247558593751	-255.3874206542969	1549.599243164063	-695.4580688476564	-272.0363769531251	1601.759399414063	-847.7507324218752	-114.5883560180664	1536.671142578125	-948.8828125000002	-91.96058654785158	1574.562133789063	-923.0074462890627	-45.37989807128907	1539.51318359375	-937.8672485351565	28.05127716064454	1545.404296875	-917.2255859375002	32.90475463867188	1489.617065429688	-884.8247070312502	293.8461303710938	1586.967407226563	-876.0316162109377	388.7911376953126	1584.37451171875	-794.3797607421877	-284.4181823730469	1603.6572265625	-544.5331420898439	-121.7161178588867	1513.909057617188	-450.6693115234376	-100.1555557250977	1552.556884765625	-475.8838195800782	-52.75326538085939	1521.703369140625	-458.1504516601564	13.16664028167725	1512.777221679688	-472.8256835937501	15.07037162780762	1455.267700195313	-524.9372558593751	276.1398010253907	1537.375854492188	-576.7087402343751	281.0404052734376	1549.111206054688	-496.846649169922	370.0725402832032	1564.02734375	-568.4851074218751	-250.3348388671876	1093.537475585938	-850.753845214844	-233.0692901611329	1071.695434570313	-609.3228759765626	-431.8429260253907	1171.80517578125	-697.9947509765626	-441.4120483398439	1143.2900390625	-728.1016845703126	-433.1329956054689	1137.836791992188	-671.2107543945314	-285.4427185058594	824.1143798828127	-953.632751464844	-247.7463531494141	747.8044433593751	-962.4432373046877	-201.7093505859376	749.3826904296876	-944.4589843750002	-271.0496826171876	692.9250488281251	-963.3380126953127	-282.9603271484376	608.6895141601564	-961.1177368164065	-247.3769683837891	574.2902832031251	-838.6931762695315	-351.8561096191407	494.8668212890626	-938.955017089844	-421.2371520996095	539.2532348632814	-962.8879394531252	-407.5950927734376	496.990447998047	-958.0620727539065	-475.0163574218751	454.2954101562501	-929.3096313476565	-674.1113891601564	440.3150024414064	-897.1209106445315	-635.9137573242189	383.7546997070313	-832.4334106445315	-672.0650634765626	477.3226623535157	-820.560241699219	-731.9498291015626	264.6304321289063	-864.5043945312502	-773.6787109375002	339.5759582519532	-931.407897949219	-343.6335449218751	862.8383789062502	-555.7271728515626	-308.1486511230469	807.536560058594	-559.4769287109376	-275.1493835449219	806.7601318359377	-560.9772949218751	-336.9032287597657	731.5333862304689	-582.1611328125001	-332.5939025878907	551.4244995117189	-615.0455932617189	-299.6348876953126	550.5582885742189	-748.1508178710939	-291.3383483886719	353.8055114746094	-719.7321166992189	-331.9645080566407	271.4482421875001	-661.3287353515626	-297.2877807617188	267.0496520996094	-694.4086914062501	-309.3777465820313	226.8257141113282	-733.5834960937501	-373.7191162109376	118.9757156372071	-701.8874511718751	-341.8380737304688	144.5369873046875	-788.3508300781252	-439.6218872070314	102.9403305053711	-765.2833251953126	-229.2622222900391	59.9134864807129	-777.4793090820315	-223.6346435546876	58.87243652343751	-725.3325805664064	-274.2853088378907	28.28766822814942	-673.6688842773439	-746.1622924804689	275.9834289550782	-907.9954833984377	
1067	5.33	-237.8067779541016	1805.726440429688	-625.5173339843751	-395.2367553710939	1760.288696289063	-700.0091552734376	-223.9627532958985	1810.138916015625	-767.5556640625001	-410.9717712402345	1595.853881835938	-709.9075317382814	-417.8356933593751	1290.405883789063	-699.0457153320314	-255.2839355468751	1549.634765625	-695.3989868164064	-271.9005126953126	1601.7880859375	-847.7062988281252	-114.483512878418	1536.566650390625	-948.7963867187502	-91.95662689208986	1574.53515625	-922.9551391601565	-45.2295265197754	1539.451049804688	-937.8178710937502	28.16726684570313	1545.348510742188	-917.1892089843752	32.78926086425782	1489.498657226563	-884.6336669921877	293.8599243164063	1586.880737304688	-875.9148559570315	389.2385253906251	1584.374755859375	-793.8951416015627	-284.3916625976563	1603.638427734375	-544.5524902343751	-121.5177383422852	1514.00048828125	-450.6035156250001	-99.94348144531253	1552.632934570313	-475.8741760253907	-52.73947906494142	1521.766235351563	-458.0774536132814	13.25070190429688	1512.818725585938	-472.8116455078126	15.2311658859253	1455.264282226563	-524.8418579101564	276.1387023925782	1537.373046875	-576.8706054687501	281.2506103515626	1549.158569335938	-496.8510742187501	370.0743713378907	1564.014404296875	-568.4578857421876	-250.2874450683594	1093.55859375	-850.6955566406252	-233.0284729003907	1071.709716796875	-609.2702026367189	-431.7648925781251	1171.97265625	-697.9571533203126	-441.355194091797	1143.332641601563	-728.0563354492189	-433.0345153808595	1137.835571289063	-671.1641235351564	-285.3615417480469	824.1411743164065	-953.566101074219	-247.7525634765626	747.8391113281251	-962.3593750000002	-201.6675720214844	749.4041137695314	-944.4100341796877	-271.0329284667969	692.9262084960939	-963.327819824219	-282.9084777832032	608.6973266601564	-961.066589355469	-247.3729553222657	574.3062744140626	-838.6276855468752	-352.1561889648438	494.7658996582032	-938.8603515625002	-421.2879333496095	539.2897949218751	-962.7749633789065	-407.5127563476564	496.9706420898439	-958.0239257812502	-475.0019836425782	454.2939758300782	-929.295593261719	-674.0812988281251	440.2899169921876	-897.118347167969	-635.9221191406251	383.6947631835938	-832.3686523437502	-672.0811157226564	477.2427062988282	-820.5400390625002	-731.7714843750001	264.5233764648438	-864.4331665039065	-773.628601074219	339.5680236816407	-931.445739746094	-343.6644897460938	862.9864501953127	-555.5966796875001	-308.3460083007813	807.5103759765627	-559.3187255859376	-275.3500671386719	806.7566528320315	-560.8296508789064	-337.0537719726563	731.5506591796876	-582.0695190429689	-332.8030090332032	551.5441284179689	-614.9313964843751	-299.5867919921876	550.5935668945314	-748.0150756835939	-291.3196411132813	353.8628540039063	-719.4959716796876	-332.0300903320313	271.4724426269532	-661.2158813476564	-297.4508972167969	267.0285644531251	-694.2338867187501	-309.3957824707032	226.9002838134766	-733.4053955078126	-373.7099304199219	118.9609298706055	-701.8078002929689	-341.7905273437501	144.5833740234375	-788.243103027344	-439.6282958984376	102.9565200805664	-765.2514648437501	-229.2115936279297	59.72716140747072	-777.5092773437502	-223.5769195556641	58.92672348022462	-725.3204956054689	-274.2967529296876	28.25162506103516	-673.6692504882814	-745.8501586914064	276.0529479980469	-908.0126953125002	
